<?xml version="1.0" encoding="UTF-8"?>
<svg width="400" height="300" viewBox="0 0 400 300" fill="none" xmlns="http://www.w3.org/2000/svg">
  <!-- 背景 -->
  <rect width="400" height="300" fill="#F5F6F8" rx="8"/>
  
  <!-- 装饰圆点 -->
  <circle cx="40" cy="40" r="4" fill="#1890FF" opacity="0.2"/>
  <circle cx="360" cy="60" r="6" fill="#1890FF" opacity="0.3"/>
  <circle cx="380" cy="260" r="5" fill="#1890FF" opacity="0.2"/>
  <circle cx="30" cy="280" r="3" fill="#1890FF" opacity="0.3"/>
  
  <!-- 主要图形 -->
  <g transform="translate(100, 50)">
    <!-- 显示器 -->
    <rect x="0" y="0" width="200" height="140" rx="8" fill="#FFFFFF" stroke="#1890FF" stroke-width="2"/>
    <rect x="10" y="10" width="180" height="100" rx="4" fill="#E6F7FF"/>
    
    <!-- 代码线条 -->
    <rect x="20" y="20" width="100" height="6" rx="3" fill="#1890FF" opacity="0.6"/>
    <rect x="20" y="35" width="140" height="6" rx="3" fill="#1890FF" opacity="0.4"/>
    <rect x="20" y="50" width="80" height="6" rx="3" fill="#1890FF" opacity="0.6"/>
    <rect x="20" y="65" width="120" height="6" rx="3" fill="#1890FF" opacity="0.4"/>
    <rect x="20" y="80" width="90" height="6" rx="3" fill="#1890FF" opacity="0.6"/>
    
    <!-- 显示器底座 -->
    <path d="M80 140 L120 140 L130 160 L70 160 Z" fill="#1890FF"/>
    <rect x="60" y="160" width="80" height="10" rx="4" fill="#1890FF"/>
  </g>
  
  <!-- 装饰图形 -->
  <g transform="translate(50, 100)">
    <!-- 左侧装饰 -->
    <circle cx="0" cy="0" r="20" fill="#1890FF" opacity="0.1"/>
    <circle cx="0" cy="0" r="10" fill="#1890FF" opacity="0.2"/>
  </g>
  
  <g transform="translate(350, 150)">
    <!-- 右侧装饰 -->
    <circle cx="0" cy="0" r="25" fill="#1890FF" opacity="0.1"/>
    <circle cx="0" cy="0" r="15" fill="#1890FF" opacity="0.2"/>
  </g>
  
  <!-- 欢迎文字 -->
  <g transform="translate(150, 240)">
    <rect x="0" y="0" width="100" height="30" rx="15" fill="#1890FF" opacity="0.1"/>
    <text x="50" y="20" font-family="Arial" font-size="14" fill="#1890FF" text-anchor="middle">Welcome</text>
  </g>
</svg> 