<?xml version="1.0" encoding="UTF-8"?>
<svg width="200" height="200" viewBox="0 0 200 200" version="1.1" xmlns="http://www.w3.org/2000/svg">
  <defs>
    <!-- 定义渐变 -->
    <linearGradient id="blueGradient" x1="0%" y1="0%" x2="100%" y2="0%">
      <stop offset="0%" style="stop-color:#0066cc;stop-opacity:1" />
      <stop offset="100%" style="stop-color:#3399ff;stop-opacity:1" />
    </linearGradient>
    <linearGradient id="redGradient" x1="0%" y1="0%" x2="100%" y2="0%">
      <stop offset="0%" style="stop-color:#cc0000;stop-opacity:1" />
      <stop offset="100%" style="stop-color:#ff3333;stop-opacity:1" />
    </linearGradient>
    <linearGradient id="yellowGradient" x1="0%" y1="0%" x2="100%" y2="0%">
      <stop offset="0%" style="stop-color:#ffcc00;stop-opacity:1" />
      <stop offset="100%" style="stop-color:#ffdd33;stop-opacity:1" />
    </linearGradient>
  </defs>

  <!-- 背景圆圈 -->
  <g transform="translate(100,100)">
    <!-- 蓝色弧线 -->
    <path d="M 0,-80 A 80,80 0 0,1 69.28,40" 
          stroke="url(#blueGradient)" 
          stroke-width="12" 
          fill="none"/>
    
    <!-- 红色弧线 -->
    <path d="M 69.28,40 A 80,80 0 0,1 -69.28,40" 
          stroke="url(#redGradient)" 
          stroke-width="12" 
          fill="none"/>

    <!-- 黄色弧线 -->
    <path d="M -69.28,40 A 80,80 0 0,1 0,-80" 
          stroke="url(#yellowGradient)" 
          stroke-width="12" 
          fill="none"/>

    <!-- HBT 字母 -->
    <g transform="translate(-30,-15)" fill="#333333">
      <!-- H -->
      <path d="M 0,0 L 0,30 M 0,15 L 15,15 M 15,0 L 15,30" 
            stroke="#333333" 
            stroke-width="4" 
            fill="none"/>
      
      <!-- B -->
      <path d="M 25,0 L 25,30 M 25,0 C 45,0 45,15 25,15 C 45,15 45,30 25,30" 
            stroke="#333333" 
            stroke-width="4" 
            fill="none"/>
      
      <!-- T -->
      <path d="M 55,0 L 55,30 M 45,0 L 65,0" 
            stroke="#333333" 
            stroke-width="4" 
            fill="none"/>
    </g>
  </g>
</svg>
